<svg id="color" enable-background="new 0 0 24 24" height="512" viewBox="0 0 24 24" width="512" xmlns="http://www.w3.org/2000/svg"><path d="m10.006 18.156.644-5.156h-1.9c-.604 0-.96-.681-.617-1.177l4.5-6.5c.45-.649 1.476-.246 1.358.538l-.62 4.139h1.879c.583 0 .942.638.643 1.136l-4.5 7.5c-.416.692-1.488.325-1.387-.48z" fill="#f44336"/><path d="m1.5 12c0-5.79 4.71-10.5 10.5-10.5 2.08 0 4.055.607 5.732 1.708l-1.512 1.512c-.471.47-.138 1.28.53 1.28h4.5c.414 0 .75-.336.75-.75v-4.5c0-.665-.806-1.004-1.28-.53l-1.914 1.914c-1.971-1.369-4.322-2.134-6.806-2.134-6.617 0-12 5.383-12 12 0 1.173.173 2.339.513 3.466.119.395.534.621.935.502.396-.12.621-.538.501-.935-.298-.987-.449-2.007-.449-3.033z" fill="#607d8b"/><path d="m23.487 8.534c-.12-.397-.535-.623-.935-.502-.396.12-.621.538-.501.935.298.987.449 2.007.449 3.033 0 5.79-4.71 10.5-10.5 10.5-2.075 0-4.048-.604-5.722-1.701l1.505-1.522c.468-.473.132-1.277-.533-1.277h-4.5c-.2 0-.393.08-.533.223-.141.142-.219.335-.217.535l.05 4.5c.006.667.819.99 1.283.519l1.878-1.898c1.967 1.361 4.312 2.121 6.789 2.121 6.617 0 12-5.383 12-12 0-1.173-.173-2.339-.513-3.466z" fill="#607d8b"/><path d="m12 6.238-3.867 5.585c-.343.496.013 1.177.617 1.177h1.9l-.645 5.157c-.064.51.343.844.756.844.238 0 .479-.112.631-.365l.608-1.012z" fill="#d43a2f"/><g fill="#546d79"><path d="m12 0c-6.617 0-12 5.383-12 12 0 1.173.173 2.339.513 3.466.097.324.394.534.718.534.071 0 .144-.01.216-.032.396-.12.621-.538.501-.935-.297-.987-.448-2.007-.448-3.033 0-5.79 4.71-10.5 10.5-10.5z"/><path d="m7.25 18h-4.5c-.2 0-.393.08-.533.223-.141.142-.219.335-.217.535l.05 4.5c.004.449.374.742.757.742.186 0 .375-.069.526-.223l1.878-1.898c1.967 1.361 4.312 2.121 6.789 2.121v-1.5c-2.075 0-4.048-.604-5.722-1.701l1.505-1.522c.468-.473.132-1.277-.533-1.277z"/></g></svg>
