<svg xmlns="http://www.w3.org/2000/svg" viewBox="0 0 512 512"><path fill="#f3705a" d="M295 26v157c0 14-11 26-25 26H134L34 261v-52h-8c-14 0-26-12-26-26V26C0 12 12 0 26 0h245c14 0 24 12 24 26z" data-original="#F3705A"/><g fill="#fff"><circle cx="69.3" cy="104.5" r="27.7" data-original="#FFFFFF"/><circle cx="148.3" cy="104.5" r="27.7" data-original="#FFFFFF"/><circle cx="227.2" cy="104.5" r="27.7" data-original="#FFFFFF"/></g><path fill="#ffd15c" d="M217 89v156c0 14 11 26 25 26h137l100 52v-52h7c14 0 26-12 26-26V89c0-14-12-26-26-26H241c-14 0-24 12-24 26z" data-original="#FFD15C"/><g fill="#fff"><circle cx="442.7" cy="167.5" r="27.7" data-original="#FFFFFF"/><circle cx="363.7" cy="167.5" r="27.7" data-original="#FFFFFF"/><circle cx="284.8" cy="167.5" r="27.7" data-original="#FFFFFF"/></g><path fill="#66c6b9" d="M371 277v158c0 14-12 26-25 26h-85l-38 51-38-52h-84c-14 0-25-12-25-26V277c0-14 11-25 25-25h246c14 0 24 11 24 25z" class="active-path" data-original="#66C6B9"/><g fill="#fff"><circle cx="301.9" cy="356.3" r="27.7" data-original="#FFFFFF"/><circle cx="224" cy="356.3" r="27.7" data-original="#FFFFFF"/><circle cx="145.1" cy="356.3" r="27.7" data-original="#FFFFFF"/></g></svg>