<svg id="Capa_1" enable-background="new 0 0 512 512" height="512" viewBox="0 0 512 512" width="512" xmlns="http://www.w3.org/2000/svg" xmlns:xlink="http://www.w3.org/1999/xlink"><linearGradient id="SVGID_1_" gradientUnits="userSpaceOnUse" x1="256" x2="256" y1="512" y2="0"><stop offset="0" stop-color="#fd5900"/><stop offset="1" stop-color="#ffde00"/></linearGradient><g><g><path d="m510.022 224.14c-1.04-8.203-9.394-14.077-17.743-13.022-8.218 1.025-14.048 8.525-13.022 16.743 1.157 9.228 1.743 18.603 1.743 28.139 0 124.072-100.928 225-225 225-70.968 0-137.589-33.975-179.802-90h29.802c8.291 0 15-6.709 15-15s-6.709-15-15-15h-60c-8.291 0-15 6.709-15 15v60c0 8.291 6.709 15 15 15s15-6.709 15-15v-16.458c48.016 57.041 119.209 92.458 195 92.458 140.61 0 256-115.39 256-256 0-10.796-.674-21.431-1.978-31.86zm-477.279 60c-1.157-9.229-1.743-18.604-1.743-28.14 0-124.072 100.928-225 225-225 70.968 0 137.589 33.975 179.802 90h-29.802c-8.291 0-15 6.709-15 15s6.709 15 15 15h60c8.291 0 15-6.709 15-15v-60c0-8.291-6.709-15-15-15s-15 6.709-15 15v16.456c-48.016-57.041-119.209-92.456-195-92.456-140.61 0-256 115.39-256 256 0 10.796.674 21.431 1.978 31.86.952 7.588 8.412 13.14 15.868 13.14.615 0 1.245-.044 1.875-.117 8.217-1.026 14.048-8.526 13.022-16.743zm186.46 150.234c2.168 1.099 4.482 1.626 6.797 1.626 4.336 0 8.599-1.89 11.528-5.391l150-180c3.296-3.97 4.336-9.36 2.725-14.268-1.597-4.907-5.61-8.643-10.62-9.888l-105.439-26.367 26.353-105.454c1.699-6.782-1.523-13.843-7.749-17.007-6.24-3.149-13.828-1.597-18.325 3.765l-150 180c-3.296 3.97-4.336 9.36-2.725 14.268 1.597 4.907 5.61 8.643 10.62 9.888l105.439 26.367-26.353 105.454c-1.699 6.782 1.524 13.843 7.749 17.007zm-56.382-172.134 92.725-111.27-14.092 56.396c-2.021 8.027 2.871 16.172 10.913 18.179l96.812 24.214-92.725 111.27 14.092-56.396c2.021-8.027-2.871-16.172-10.913-18.179z" fill="url(#SVGID_1_)"/></g></g></svg>