<?xml version="1.0" encoding="UTF-8" standalone="no"?>
<svg
   xmlns:dc="http://purl.org/dc/elements/1.1/"
   xmlns:cc="http://creativecommons.org/ns#"
   xmlns:rdf="http://www.w3.org/1999/02/22-rdf-syntax-ns#"
   xmlns:svg="http://www.w3.org/2000/svg"
   xmlns="http://www.w3.org/2000/svg"
   xmlns:sodipodi="http://sodipodi.sourceforge.net/DTD/sodipodi-0.dtd"
   xmlns:inkscape="http://www.inkscape.org/namespaces/inkscape"
   inkscape:version="1.0 (4035a4fb49, 2020-05-01)"
   sodipodi:docname="signup.svg"
   id="svg8"
   xml:space="preserve"
   enable-background="new 0 0 1000 1000"
   viewBox="0 0 1000 1000"
   y="0px"
   x="0px"
   version="1.1"><defs
   id="defs12" /><sodipodi:namedview
   inkscape:current-layer="svg8"
   inkscape:window-maximized="1"
   inkscape:window-y="0"
   inkscape:window-x="0"
   inkscape:cy="372.82109"
   inkscape:cx="264.29602"
   inkscape:zoom="0.60174787"
   showgrid="false"
   id="namedview10"
   inkscape:window-height="1009"
   inkscape:window-width="1920"
   inkscape:pageshadow="2"
   inkscape:pageopacity="0"
   guidetolerance="10"
   gridtolerance="10"
   objecttolerance="10"
   borderopacity="1"
   bordercolor="#666666"
   pagecolor="#ffffff" />
<metadata
   id="metadata2"> Svg Vector Icons : http://www.onlinewebfonts.com/icon <rdf:RDF><cc:Work
     rdf:about=""><dc:format>image/svg+xml</dc:format><dc:type
       rdf:resource="http://purl.org/dc/dcmitype/StillImage" /><dc:title></dc:title></cc:Work></rdf:RDF></metadata>
<g
   style="fill:#ffffff;fill-opacity:1"
   id="g6"><path
     style="fill:#ffffff;fill-opacity:1"
     id="path4"
     d="M 594.3,533.2 896.3,240.7 762.1,114.1 456.9,415.4 410,532.9 470,598.2 Z M 978.4,104.5 902.8,25.8 c 0,0 -22.5,-30.6 -48.9,-4.3 L 793.4,84.4 920.2,207.6 979.3,149 c 0,0 24.6,-19.1 -0.9,-44.5 z m -96.7,238.3 c -48.9,0 -54.4,41.6 -54.4,41.6 v 463.1 c 0,19.6 -15.9,35.4 -35.5,35.4 H 152.1 c -19.6,0 -35.5,-15.9 -35.5,-35.4 V 210 c 0,-19.6 15.9,-35.4 35.5,-35.4 H 610 c 0,0 40.8,-17.7 40.8,-52 0,0 2.4,-54.2 -37.6,-54.2 H 116.6 C 57.7,68.4 10,116 10,174.6 v 708.3 c 0,58.7 47.7,106.2 106.6,106.2 h 710.7 c 58.9,0 106.6,-47.6 106.6,-106.2 V 384.4 c 0,-32.1 -52.2,-41.6 -52.2,-41.6 z m -512,286.5 70,-10.5 -54.7,-50.7 z" /></g>
</svg>
